<svg width="183" height="48" viewBox="0 0 183 48" fill="none" xmlns="http://www.w3.org/2000/svg">
<path d="M15.7144 33.4286C24.3931 33.4286 31.4287 26.393 31.4287 17.7143C31.4287 16.7307 31.3383 15.7682 31.1654 14.8347C30.2319 14.6618 29.2694 14.5714 28.2858 14.5714C19.6071 14.5714 12.5715 21.6069 12.5715 30.2857C12.5715 31.2693 12.6619 32.2318 12.8348 33.1653C13.7683 33.3382 14.7308 33.4286 15.7144 33.4286Z" fill="white"/>
<path opacity="0.8" fill-rule="evenodd" clip-rule="evenodd" d="M12.8347 33.1653C5.53118 31.8127 0 25.4095 0 17.7143C0 9.03553 7.03553 2 15.7143 2C23.4095 2 29.8128 7.53118 31.1653 14.8347C30.2318 14.6618 29.2693 14.5714 28.2857 14.5714C19.607 14.5714 12.5714 21.607 12.5714 30.2857C12.5714 31.2693 12.6618 32.2318 12.8347 33.1653Z" fill="white"/>
<path opacity="0.6" fill-rule="evenodd" clip-rule="evenodd" d="M15.7143 33.4285C24.3931 33.4285 31.4286 26.393 31.4286 17.7142C31.4286 16.7306 31.3382 15.7681 31.1654 14.8346C38.4689 16.1872 44 22.5905 44 30.2856C44 38.9644 36.9645 45.9999 28.2858 45.9999C20.5906 45.9999 14.1873 40.4687 12.8347 33.1652C13.7682 33.3381 14.7307 33.4285 15.7143 33.4285Z" fill="white"/>
<path d="M66.656 36.448C63.9253 36.448 61.76 35.68 60.16 34.144C58.56 32.5867 57.76 30.3467 57.76 27.424V22.176C57.76 19.2533 58.56 17.024 60.16 15.488C61.76 13.9307 63.9253 13.152 66.656 13.152C69.344 13.152 71.4133 13.8987 72.864 15.392C74.336 16.8853 75.072 18.9227 75.072 21.504V21.696H71.648V21.408C71.648 19.8933 71.232 18.656 70.4 17.696C69.5893 16.736 68.3413 16.256 66.656 16.256C64.9493 16.256 63.616 16.7787 62.656 17.824C61.696 18.848 61.216 20.2773 61.216 22.112V27.488C61.216 29.3013 61.696 30.7307 62.656 31.776C63.616 32.8213 64.9493 33.344 66.656 33.344C68.3413 33.344 69.5893 32.864 70.4 31.904C71.232 30.9227 71.648 29.6853 71.648 28.192V27.648H75.072V28.096C75.072 30.6773 74.336 32.7147 72.864 34.208C71.4133 35.7013 69.344 36.448 66.656 36.448ZM86.3865 36.448C84.8078 36.448 83.3998 36.128 82.1625 35.488C80.9465 34.8267 79.9865 33.888 79.2825 32.672C78.5785 31.456 78.2265 30.016 78.2265 28.352V27.872C78.2265 26.208 78.5785 24.7787 79.2825 23.584C79.9865 22.368 80.9465 21.4293 82.1625 20.768C83.3998 20.1067 84.8078 19.776 86.3865 19.776C87.9652 19.776 89.3732 20.1067 90.6105 20.768C91.8478 21.4293 92.8185 22.368 93.5225 23.584C94.2265 24.7787 94.5785 26.208 94.5785 27.872V28.352C94.5785 30.016 94.2265 31.456 93.5225 32.672C92.8185 33.888 91.8478 34.8267 90.6105 35.488C89.3732 36.128 87.9652 36.448 86.3865 36.448ZM86.3865 33.504C87.8372 33.504 89.0105 33.0453 89.9065 32.128C90.8238 31.1893 91.2825 29.8987 91.2825 28.256V27.968C91.2825 26.3253 90.8345 25.0453 89.9385 24.128C89.0425 23.1893 87.8585 22.72 86.3865 22.72C84.9572 22.72 83.7838 23.1893 82.8665 24.128C81.9705 25.0453 81.5225 26.3253 81.5225 27.968V28.256C81.5225 29.8987 81.9705 31.1893 82.8665 32.128C83.7838 33.0453 84.9572 33.504 86.3865 33.504ZM105.146 36.448C103.141 36.448 101.477 36 100.154 35.104C98.8313 34.208 98.0207 32.8533 97.722 31.04L100.794 30.304C100.965 31.1787 101.253 31.872 101.658 32.384C102.063 32.896 102.565 33.2587 103.162 33.472C103.781 33.6853 104.442 33.792 105.146 33.792C106.191 33.792 106.991 33.5893 107.546 33.184C108.122 32.7787 108.41 32.256 108.41 31.616C108.41 30.976 108.143 30.5067 107.61 30.208C107.077 29.9093 106.287 29.664 105.242 29.472L104.154 29.28C103.087 29.088 102.117 28.8107 101.242 28.448C100.367 28.0853 99.674 27.584 99.162 26.944C98.65 26.304 98.394 25.4827 98.394 24.48C98.394 22.9867 98.9487 21.8347 100.058 21.024C101.167 20.192 102.639 19.776 104.474 19.776C106.245 19.776 107.695 20.1813 108.826 20.992C109.978 21.7813 110.725 22.8587 111.066 24.224L107.994 25.088C107.802 24.128 107.397 23.456 106.778 23.072C106.159 22.6667 105.391 22.464 104.474 22.464C103.578 22.464 102.874 22.6347 102.362 22.976C101.85 23.296 101.594 23.7547 101.594 24.352C101.594 24.992 101.839 25.4613 102.33 25.76C102.842 26.0587 103.525 26.2827 104.378 26.432L105.498 26.624C106.629 26.816 107.663 27.0827 108.602 27.424C109.541 27.7653 110.277 28.256 110.81 28.896C111.365 29.536 111.642 30.3893 111.642 31.456C111.642 33.0347 111.055 34.2613 109.882 35.136C108.709 36.0107 107.13 36.448 105.146 36.448ZM121.071 36C120.111 36 119.343 35.712 118.767 35.136C118.212 34.56 117.935 33.792 117.935 32.832V23.008H113.583V20.224H117.935V15.008H121.231V20.224H125.935V23.008H121.231V32.256C121.231 32.896 121.529 33.216 122.127 33.216H125.423V36H121.071ZM134.672 36.448C133.541 36.448 132.528 36.256 131.632 35.872C130.757 35.488 130.053 34.9227 129.52 34.176C129.008 33.4293 128.752 32.5227 128.752 31.456C128.752 30.368 129.008 29.472 129.52 28.768C130.053 28.0427 130.768 27.4987 131.664 27.136C132.581 26.7733 133.616 26.592 134.768 26.592H139.568V25.568C139.568 24.6507 139.29 23.9147 138.736 23.36C138.181 22.8053 137.328 22.528 136.176 22.528C135.045 22.528 134.181 22.7947 133.584 23.328C132.986 23.8613 132.592 24.5547 132.4 25.408L129.328 24.416C129.584 23.5627 129.989 22.7947 130.544 22.112C131.12 21.408 131.877 20.8427 132.816 20.416C133.754 19.9893 134.885 19.776 136.208 19.776C138.256 19.776 139.866 20.2987 141.04 21.344C142.213 22.3893 142.8 23.872 142.8 25.792V32.288C142.8 32.928 143.098 33.248 143.696 33.248H145.04V36H142.576C141.829 36 141.221 35.808 140.752 35.424C140.282 35.04 140.048 34.5173 140.048 33.856V33.76H139.568C139.397 34.08 139.141 34.4533 138.8 34.88C138.458 35.3067 137.957 35.68 137.296 36C136.634 36.2987 135.76 36.448 134.672 36.448ZM135.152 33.728C136.474 33.728 137.541 33.3547 138.352 32.608C139.162 31.84 139.568 30.7947 139.568 29.472V29.152H134.96C134.085 29.152 133.381 29.344 132.848 29.728C132.314 30.0907 132.048 30.6347 132.048 31.36C132.048 32.0853 132.325 32.6613 132.88 33.088C133.434 33.5147 134.192 33.728 135.152 33.728ZM155.198 36.448C153.683 36.448 152.307 36.128 151.07 35.488C149.854 34.848 148.883 33.92 148.158 32.704C147.454 31.488 147.102 30.0267 147.102 28.32V27.904C147.102 26.1973 147.454 24.7467 148.158 23.552C148.883 22.336 149.854 21.408 151.07 20.768C152.307 20.1067 153.683 19.776 155.198 19.776C156.712 19.776 158.003 20.0533 159.07 20.608C160.136 21.1627 160.99 21.8987 161.63 22.816C162.291 23.7333 162.718 24.7467 162.91 25.856L159.71 26.528C159.603 25.824 159.379 25.184 159.038 24.608C158.696 24.032 158.216 23.5733 157.598 23.232C156.979 22.8907 156.2 22.72 155.262 22.72C154.344 22.72 153.512 22.9333 152.766 23.36C152.04 23.7653 151.464 24.3627 151.038 25.152C150.611 25.92 150.398 26.8587 150.398 27.968V28.256C150.398 29.3653 150.611 30.3147 151.038 31.104C151.464 31.8933 152.04 32.4907 152.766 32.896C153.512 33.3013 154.344 33.504 155.262 33.504C156.648 33.504 157.704 33.152 158.43 32.448C159.155 31.7227 159.614 30.8053 159.806 29.696L163.006 30.432C162.75 31.52 162.291 32.5227 161.63 33.44C160.99 34.3573 160.136 35.0933 159.07 35.648C158.003 36.1813 156.712 36.448 155.198 36.448ZM166.807 36V13.6H170.103V26.368H170.615L176.823 20.224H181.207L173.239 27.872L181.463 36H177.111L170.615 29.44H170.103V36H166.807Z" fill="white"/>
</svg>
